<svg xmlns="http://www.w3.org/2000/svg" viewBox="0 0 200 200" width="200" height="200" role="img">
  <title>perro - exito</title>
  
      <ellipse cx="42" cy="96" rx="20" ry="38" fill="#8d6a4a" transform="rotate(12 42 96)"/>
      <ellipse cx="158" cy="96" rx="20" ry="38" fill="#8d6a4a" transform="rotate(-12 158 96)"/>
  <ellipse cx="100" cy="112" rx="64" ry="56" fill="#d9b38c"/>
  <circle cx="58" cy="130" r="9" fill="#f08a8a" opacity=".6"/><circle cx="142" cy="130" r="9" fill="#f08a8a" opacity=".6"/>
  <path d="M62 108 Q74 90 86 108 M114 108 Q126 90 138 108" fill="none" stroke="#2b2233" stroke-width="5" stroke-linecap="round"/>
  <ellipse cx="100" cy="132" rx="26" ry="19" fill="#b58f6b"/><ellipse cx="100" cy="122" rx="8" ry="6" fill="#3a2a22"/>
  <path d="M82 134 Q100 164 118 134 Z" fill="#2b2233"/><path d="M92 146 Q100 154 108 146 Q100 142 92 146Z" fill="#e0707e"/>
  <g fill="#f5c542">
            <path d="M30 40 l5 11 12 1 -9 8 3 12 -11 -7 -11 7 3 -12 -9 -8 12 -1z"/>
            <path d="M164 30 l4 9 10 1 -8 7 2 10 -8 -6 -9 6 3 -10 -8 -7 10 -1z"/>
          </g>
</svg>
