<svg xmlns="http://www.w3.org/2000/svg" viewBox="0 0 200 200" width="200" height="200" role="img">
  <title>gato - descanso</title>
  
      <polygon points="48,78 56,24 98,56" fill="#f2a65a"/>
      <polygon points="152,78 144,24 102,56" fill="#f2a65a"/>
      <polygon points="58,66 62,40 82,56" fill="#f7c9a0"/>
      <polygon points="142,66 138,40 118,56" fill="#f7c9a0"/>
  <ellipse cx="100" cy="112" rx="64" ry="56" fill="#f2a65a"/>
  
  <path d="M62 106 Q74 116 86 106 M114 106 Q126 116 138 106" fill="none" stroke="#2b2233" stroke-width="5" stroke-linecap="round"/>
  
      <path d="M52 126 L22 120 M52 134 L22 138 M148 126 L178 120 M148 134 L178 138"
            stroke="#2b2233" stroke-width="2.5" stroke-linecap="round"/><ellipse cx="100" cy="122" rx="8" ry="6" fill="#e0707e"/>
  <path d="M92 140 Q100 147 108 140" fill="none" stroke="#2b2233" stroke-width="4" stroke-linecap="round"/>
  <g fill="#5b8def" font-family="Arial, sans-serif" font-weight="bold">
               <text x="150" y="58" font-size="30">Z</text>
               <text x="168" y="36" font-size="22">z</text>
               <text x="180" y="18" font-size="16">z</text>
             </g>
</svg>
